<svg xmlns="http://www.w3.org/2000/svg" width="2559.999" height="1440" viewBox="0 0 67733 38100" shape-rendering="geometricPrecision" text-rendering="geometricPrecision" image-rendering="optimizeQuality" fill-rule="evenodd" clip-rule="evenodd"><defs><style>.fil2{fill:url(#id0);fill-rule:nonzero}.fil97{fill:url(#id1)}.fil16,.fil66,.fil94,.fil97{fill-rule:nonzero}.fil94{fill:url(#id2)}.fil16{fill:url(#id3)}.fil66{fill:url(#id4)}.fil114,.fil123,.fil71{fill-rule:nonzero}.fil71{fill:url(#id5)}.fil123{fill:url(#id6)}.fil114{fill:url(#id7)}.fil120{fill:url(#id8)}.fil120,.fil121,.fil33{fill-rule:nonzero}.fil121{fill:url(#id9)}.fil33{fill:url(#id10)}.fil106{fill-rule:nonzero}.fil109{fill:url(#id11)}.fil109,.fil14{fill-rule:nonzero}.fil106{fill:url(#id12)}.fil14{fill:url(#id13)}.fil1{fill:url(#id14)}.fil1,.fil13,.fil20{fill-rule:nonzero}.fil20{fill:url(#id15)}.fil13{fill:url(#id16)}.fil125{fill:url(#id17)}.fil125,.fil45,.fil82{fill-rule:nonzero}.fil45{fill:url(#id18)}.fil82{fill:url(#id19)}.fil129{fill-rule:nonzero}.fil46{fill:url(#id20)}.fil46,.fil53{fill-rule:nonzero}.fil129{fill:url(#id21)}.fil53{fill:url(#id22)}.fil28{fill-rule:nonzero}.fil54{fill:url(#id23)}.fil54,.fil61{fill-rule:nonzero}.fil28{fill:url(#id24)}.fil61{fill:url(#id25)}.fil15,.fil67,.fil81{fill-rule:nonzero}.fil81{fill:url(#id26)}.fil67{fill:url(#id27)}.fil15{fill:url(#id28)}.fil107,.fil108,.fil126{fill-rule:nonzero}.fil126{fill:url(#id29)}.fil108{fill:url(#id30)}.fil107{fill:url(#id31)}.fil127,.fil128,.fil24{fill-rule:nonzero}.fil128,.fil24{fill:url(#id32)}.fil24{fill:url(#id33)}.fil127{fill:url(#id34)}.fil115{fill:url(#id35)}.fil115,.fil80,.fil98{fill-rule:nonzero}.fil80{fill:url(#id36)}.fil98{fill:url(#id37)}.fil43{fill:url(#id38)}.fil43,.fil44,.fil92{fill-rule:nonzero}.fil44{fill:url(#id39)}.fil92{fill:url(#id40)}.fil111,.fil112,.fil95{fill-rule:nonzero}.fil95{fill:url(#id41)}.fil111{fill:url(#id42)}.fil112{fill:url(#id43)}.fil11,.fil132,.fil133{fill-rule:nonzero}.fil133{fill:url(#id44)}.fil132{fill:url(#id45)}.fil11{fill:url(#id46)}.fil113,.fil22,.fil32{fill-rule:nonzero}.fil22,.fil32{fill:url(#id47)}.fil32{fill:url(#id48)}.fil113{fill:url(#id49)}.fil122{fill:url(#id50)}.fil122,.fil63,.fil88{fill-rule:nonzero}.fil88{fill:url(#id51)}.fil63{fill:url(#id52)}.fil35,.fil41,.fil42{fill-rule:nonzero}.fil41,.fil42{fill:url(#id53)}.fil42{fill:url(#id54)}.fil35{fill:url(#id55)}.fil117{fill:url(#id56)}.fil117,.fil5,.fil6{fill-rule:nonzero}.fil6{fill:url(#id57)}.fil5{fill:url(#id58)}.fil110{fill:url(#id59)}.fil110,.fil118,.fil119{fill-rule:nonzero}.fil119{fill:url(#id60)}.fil118{fill:url(#id61)}.fil48,.fil68,.fil84{fill-rule:nonzero}.fil84{fill:url(#id62)}.fil68{fill:url(#id63)}.fil48{fill:url(#id64)}.fil3,.fil47,.fil93{fill-rule:nonzero}.fil47,.fil93{fill:url(#id65)}.fil93{fill:url(#id66)}.fil3{fill:url(#id67)}.fil104{fill:url(#id68)}.fil104,.fil105,.fil75{fill-rule:nonzero}.fil105{fill:url(#id69)}.fil75{fill:url(#id70)}.fil103,.fil64,.fil79{fill-rule:nonzero}.fil64,.fil79{fill:url(#id71)}.fil79{fill:url(#id72)}.fil103{fill:url(#id73)}.fil18,.fil26,.fil4{fill-rule:nonzero}.fil4{fill:url(#id74)}.fil26{fill:url(#id75)}.fil18{fill:url(#id76)}.fil17,.fil55,.fil60{fill-rule:nonzero}.fil55,.fil60{fill:url(#id77)}.fil60{fill:url(#id78)}.fil17{fill:url(#id79)}.fil102,.fil19,.fil52{fill-rule:nonzero}.fil19,.fil52{fill:url(#id80)}.fil52{fill:url(#id81)}.fil102{fill:url(#id82)}.fil130,.fil72,.fil73{fill-rule:nonzero}.fil73{fill:url(#id83)}.fil72{fill:url(#id84)}.fil130{fill:url(#id85)}.fil27{fill:url(#id86)}.fil27,.fil31,.fil87{fill-rule:nonzero}.fil31{fill:url(#id87)}.fil87{fill:url(#id88)}.fil131{fill:url(#id89)}.fil131,.fil70,.fil83{fill-rule:nonzero}.fil83{fill:url(#id90)}.fil70{fill:url(#id91)}.fil116,.fil21,.fil65{fill-rule:nonzero}.fil65{fill:url(#id92)}.fil116{fill:url(#id93)}.fil21{fill:url(#id94)}.fil124{fill:url(#id95)}.fil124,.fil29,.fil74{fill-rule:nonzero}.fil74{fill:url(#id96)}.fil29{fill:url(#id97)}.fil30{fill:url(#id98)}.fil30,.fil37,.fil89{fill-rule:nonzero}.fil89{fill:url(#id99)}.fil37{fill:url(#id100)}.fil38,.fil40,.fil85{fill-rule:nonzero}.fil40,.fil85{fill:url(#id101)}.fil85{fill:url(#id102)}.fil38{fill:url(#id103)}.fil100{fill:url(#id104)}.fil100,.fil34,.fil7{fill-rule:nonzero}.fil7{fill:url(#id105)}.fil34{fill:url(#id106)}.fil51{fill:url(#id107)}.fil51,.fil62,.fil86{fill-rule:nonzero}.fil62{fill:url(#id108)}.fil86{fill:url(#id109)}.fil101{fill:url(#id110)}.fil101,.fil25,.fil59{fill-rule:nonzero}.fil59{fill:url(#id111)}.fil25{fill:url(#id112)}.fil10,.fil9,.fil99{fill-rule:nonzero}.fil99{fill:url(#id113)}.fil9{fill:url(#id114)}.fil10{fill:url(#id115)}.fil12{fill:url(#id116)}.fil12,.fil39,.fil58{fill-rule:nonzero}.fil39{fill:url(#id117)}.fil58{fill:url(#id118)}.fil36{fill:url(#id119)}.fil36,.fil56,.fil8{fill-rule:nonzero}.fil8{fill:url(#id120)}.fil56{fill:url(#id121)}.fil23{fill-rule:nonzero}.fil57{fill:url(#id122)}.fil57,.fil90{fill-rule:nonzero}.fil23{fill:url(#id123)}.fil90{fill:url(#id124)}.fil0,.fil50,.fil91{fill-rule:nonzero}.fil91{fill:url(#id125)}.fil0{fill:url(#id126)}.fil50{fill:url(#id127)}.fil76{fill:url(#id128)}.fil76,.fil77,.fil96{fill-rule:nonzero}.fil77{fill:url(#id129)}.fil96{fill:url(#id130)}.fil49,.fil69,.fil78{fill-rule:nonzero}.fil78{fill:url(#id131)}.fil69{fill:url(#id132)}.fil49{fill:url(#id133)}</style><linearGradient id="id0" gradientUnits="userSpaceOnUse" x1="51576.4" y1="19306.9" x2="54313.6" y2="20597.3"><stop offset="0" stop-color="#4d623d"/><stop offset="1" stop-color="#4d603a"/></linearGradient><linearGradient id="id1" gradientUnits="userSpaceOnUse" x1="9244.05" y1="-21.41" x2="12627.7" y2="4136.75"><stop offset="0" stop-color="#567280"/><stop offset="1" stop-color="#607e95"/></linearGradient><linearGradient id="id2" gradientUnits="userSpaceOnUse" x1="62890.9" y1="36002.1" x2="66936.9" y2="38399.7"><stop offset="0" stop-color="#485605"/><stop offset="1" stop-color="#485207"/></linearGradient><linearGradient id="id3" gradientUnits="userSpaceOnUse" x1="48383" y1="20669" x2="54726.4" y2="25665.5"><stop offset="0" stop-color="#4b5d2f"/><stop offset="1" stop-color="#4d5d26"/></linearGradient><linearGradient id="id4" gradientUnits="userSpaceOnUse" x1="17817.7" y1="35758.3" x2="28219.8" y2="38643.5"><stop offset="0" stop-color="#504d03"/><stop offset="1" stop-color="#545205"/></linearGradient><linearGradient id="id5" gradientUnits="userSpaceOnUse" x1="39721.2" y1="4334.3" x2="52352.4" y2="10370.1"><stop offset="0" stop-color="#6d8790"/><stop offset="1" stop-color="#607979"/></linearGradient><linearGradient id="id6" gradientUnits="userSpaceOnUse" x1="1159.49" y1="-208.92" x2="4757.59" y2="4498.04"><stop offset="0" stop-color="#446477"/><stop offset="1" stop-color="#4b6979"/></linearGradient><linearGradient id="id7" gradientUnits="userSpaceOnUse" x1="2936.44" y1="16280.7" x2="12234.3" y2="23232.4"><stop offset="0" stop-color="#36461d"/><stop offset="1" stop-color="#3a4d2d"/></linearGradient><linearGradient id="id8" gradientUnits="userSpaceOnUse" x1="-180.02" y1="4380.34" x2="2942.66" y2="10541.3"><stop offset="0" stop-color="#385456"/><stop offset="1" stop-color="#3a5452"/></linearGradient><linearGradient id="id9" gradientUnits="userSpaceOnUse" x1="32.05" y1="105.45" x2="2730.59" y2="4444.99"><stop offset="0" stop-color="#3b5960"/><stop offset="1" stop-color="#3f5d69"/></linearGradient><linearGradient id="id10" gradientUnits="userSpaceOnUse" x1="39990.4" y1="59.28" x2="47781.8" y2="4012.6"><stop offset="0" stop-color="#7e9aaa"/><stop offset="1" stop-color="#7c99a8"/></linearGradient><linearGradient id="id11" gradientUnits="userSpaceOnUse" x1="130.15" y1="20299.6" x2="2806.29" y2="22201"><stop offset="0" stop-color="#2f4116"/><stop offset="1" stop-color="#31421a"/></linearGradient><linearGradient id="id12" gradientUnits="userSpaceOnUse" x1="-96.58" y1="22651.2" x2="3033.02" y2="24627.8"><stop offset="0" stop-color="#333f11"/><stop offset="1" stop-color="#314115"/></linearGradient><linearGradient id="id13" gradientUnits="userSpaceOnUse" x1="54874.1" y1="20358.7" x2="61964.8" y2="28408.8"><stop offset="0" stop-color="#4d6034"/><stop offset="1" stop-color="#4b5d24"/></linearGradient><linearGradient id="id14" gradientUnits="userSpaceOnUse" x1="27453.3" y1="-304.77" x2="39315.7" y2="5940.77"><stop offset="0" stop-color="#7791a1"/><stop offset="1" stop-color="#728c99"/></linearGradient><linearGradient id="id15" gradientUnits="userSpaceOnUse" x1="1279.46" y1="32522.4" x2="9025.12" y2="38229.8"><stop offset="0" stop-color="#3b4105"/><stop offset="1" stop-color="#3f4205"/></linearGradient><linearGradient id="id16" gradientUnits="userSpaceOnUse" x1="55169.5" y1="23879.8" x2="61669.4" y2="28276.7"><stop offset="0" stop-color="#4f5b1a"/><stop offset="1" stop-color="#4d5b21"/></linearGradient><linearGradient id="id17" gradientUnits="userSpaceOnUse" x1="4661.24" y1="-204.2" x2="8771.58" y2="4493.32"><stop offset="0" stop-color="#547285"/><stop offset="1" stop-color="#49666e"/></linearGradient><linearGradient id="id18" gradientUnits="userSpaceOnUse" x1="61764.1" y1="15186.9" x2="68022.3" y2="20276.9"><stop offset="0" stop-color="#506644"/><stop offset="1" stop-color="#526b4f"/></linearGradient><linearGradient id="id19" gradientUnits="userSpaceOnUse" x1="48676.7" y1="26096.5" x2="55432" y2="36009.6"><stop offset="0" stop-color="#505d18"/><stop offset="1" stop-color="#525d11"/></linearGradient><linearGradient id="id20" gradientUnits="userSpaceOnUse" x1="62366.7" y1="20860.1" x2="66941.8" y2="31339.8"><stop offset="0" stop-color="#4d5b1d"/><stop offset="1" stop-color="#4d5d26"/></linearGradient><linearGradient id="id21" gradientUnits="userSpaceOnUse" x1="15015" y1="4515.9" x2="23183.2" y2="11622.3"><stop offset="0" stop-color="#567275"/><stop offset="1" stop-color="#56706e"/></linearGradient><linearGradient id="id22" gradientUnits="userSpaceOnUse" x1="37086.5" y1="20625.5" x2="48383" y2="33486.1"><stop offset="0" stop-color="#4d5b26"/><stop offset="1" stop-color="#545b16"/></linearGradient><linearGradient id="id23" gradientUnits="userSpaceOnUse" x1="37161.9" y1="25599.3" x2="48307.6" y2="38288.2"><stop offset="0" stop-color="#5d6008"/><stop offset="1" stop-color="#575d11"/></linearGradient><linearGradient id="id24" gradientUnits="userSpaceOnUse" x1="52481.4" y1="3383.65" x2="57014.8" y2="10408.3"><stop offset="0" stop-color="#72909e"/><stop offset="1" stop-color="#6b8990"/></linearGradient><linearGradient id="id25" gradientUnits="userSpaceOnUse" x1="-422.86" y1="33211.9" x2="5309.8" y2="37540.2"><stop offset="0" stop-color="#383f05"/><stop offset="1" stop-color="#3b3d03"/></linearGradient><linearGradient id="id26" gradientUnits="userSpaceOnUse" x1="45077.4" y1="35978.6" x2="54392.5" y2="38683.9"><stop offset="0" stop-color="#596005"/><stop offset="1" stop-color="#505d05"/></linearGradient><linearGradient id="id27" gradientUnits="userSpaceOnUse" x1="18223.8" y1="31829.9" x2="29041.4" y2="38140.2"><stop offset="0" stop-color="#505007"/><stop offset="1" stop-color="#565408"/></linearGradient><linearGradient id="id28" gradientUnits="userSpaceOnUse" x1="48383" y1="19235.2" x2="52640.9" y2="25665.5"><stop offset="0" stop-color="#4d6036"/><stop offset="1" stop-color="#4d5d2b"/></linearGradient><linearGradient id="id29" gradientUnits="userSpaceOnUse" x1="-399.91" y1="278.95" x2="912.37" y2="2160.41"><stop offset="0" stop-color="#3a565e"/><stop offset="1" stop-color="#3b5969"/></linearGradient><linearGradient id="id30" gradientUnits="userSpaceOnUse" x1="-31.95" y1="32175.8" x2="1056.69" y2="33759.3"><stop offset="0" stop-color="#383b03"/><stop offset="1" stop-color="#363f05"/></linearGradient><linearGradient id="id31" gradientUnits="userSpaceOnUse" x1="-178.12" y1="30220.1" x2="1202.86" y2="32418.3"><stop offset="0" stop-color="#343f0c"/><stop offset="1" stop-color="#363f08"/></linearGradient><linearGradient id="id32" gradientUnits="userSpaceOnUse" x1="12234.3" y1="11849" x2="23443.9" y2="18453.1"><stop offset="0" stop-color="#42563b"/><stop offset="1" stop-color="#485b42"/></linearGradient><linearGradient id="id33" gradientUnits="userSpaceOnUse" x1="3635.09" y1="23511.3" x2="13881.9" y2="27602.4"><stop offset="0" stop-color="#3b460f"/><stop offset="1" stop-color="#3b4613"/></linearGradient><linearGradient id="id34" gradientUnits="userSpaceOnUse" x1="12234.3" y1="4289.11" x2="23443.9" y2="16280.7"><stop offset="0" stop-color="#445b46"/><stop offset="1" stop-color="#506962"/></linearGradient><linearGradient id="id35" gradientUnits="userSpaceOnUse" x1="4848.15" y1="13152.5" x2="9192.93" y2="17410.4"><stop offset="0" stop-color="#384d2f"/><stop offset="1" stop-color="#3b523a"/></linearGradient><linearGradient id="id36" gradientUnits="userSpaceOnUse" x1="43915.3" y1="25647.5" x2="51743" y2="38239.9"><stop offset="0" stop-color="#5b6008"/><stop offset="1" stop-color="#545d0f"/></linearGradient><linearGradient id="id37" gradientUnits="userSpaceOnUse" x1="11847.7" y1="314.35" x2="13576.8" y2="3974.77"><stop offset="0" stop-color="#56727b"/><stop offset="1" stop-color="#607c89"/></linearGradient><linearGradient id="id38" gradientUnits="userSpaceOnUse" x1="63939" y1="8561.08" x2="68454.2" y2="13506.3"><stop offset="0" stop-color="#678387"/><stop offset="1" stop-color="#62807e"/></linearGradient><linearGradient id="id39" gradientUnits="userSpaceOnUse" x1="61874.4" y1="20442.6" x2="65305.1" y2="28324.9"><stop offset="0" stop-color="#4d6236"/><stop offset="1" stop-color="#4d602d"/></linearGradient><linearGradient id="id40" gradientUnits="userSpaceOnUse" x1="64183.1" y1="32876.3" x2="68210.1" y2="35225.5"><stop offset="0" stop-color="#49560a"/><stop offset="1" stop-color="#49560e"/></linearGradient><linearGradient id="id41" gradientUnits="userSpaceOnUse" x1="64296.9" y1="35919.8" x2="68096.3" y2="38090.9"><stop offset="0" stop-color="#495408"/><stop offset="1" stop-color="#485208"/></linearGradient><linearGradient id="id42" gradientUnits="userSpaceOnUse" x1="-157.87" y1="10740.1" x2="5006.01" y2="18319.3"><stop offset="0" stop-color="#314626"/><stop offset="1" stop-color="#344b31"/></linearGradient><linearGradient id="id43" gradientUnits="userSpaceOnUse" x1="-145.28" y1="17544.8" x2="4993.42" y2="23098"><stop offset="0" stop-color="#31441f"/><stop offset="1" stop-color="#34461f"/></linearGradient><linearGradient id="id44" gradientUnits="userSpaceOnUse" x1="23660.2" y1="5884.52" x2="34046" y2="17813.6"><stop offset="0" stop-color="#5b7470"/><stop offset="1" stop-color="#4f6250"/></linearGradient><linearGradient id="id45" gradientUnits="userSpaceOnUse" x1="23768.4" y1="12112.3" x2="33937.8" y2="20362.2"><stop offset="0" stop-color="#485936"/><stop offset="1" stop-color="#4b5e46"/></linearGradient><linearGradient id="id46" gradientUnits="userSpaceOnUse" x1="52766" y1="19863.4" x2="54601.2" y2="23342.7"><stop offset="0" stop-color="#4b5e34"/><stop offset="1" stop-color="#4d5e34"/></linearGradient><linearGradient id="id47" gradientUnits="userSpaceOnUse" x1="5493.14" y1="33168.5" x2="12540.6" y2="38278.9"><stop offset="0" stop-color="#414205"/><stop offset="1" stop-color="#424605"/></linearGradient><linearGradient id="id48" gradientUnits="userSpaceOnUse" x1="40372.2" y1="-843.5" x2="44071" y2="1743.68"><stop offset="0" stop-color="#839eb1"/><stop offset="1" stop-color="#87a5bc"/></linearGradient><linearGradient id="id49" gradientUnits="userSpaceOnUse" x1="565.93" y1="10700.3" x2="6697.29" y2="17342.6"><stop offset="0" stop-color="#364d3b"/><stop offset="1" stop-color="#384d34"/></linearGradient><linearGradient id="id50" gradientUnits="userSpaceOnUse" x1="753.61" y1="4643.64" x2="6509.61" y2="12798"><stop offset="0" stop-color="#385044"/><stop offset="1" stop-color="#3b564d"/></linearGradient><linearGradient id="id51" gradientUnits="userSpaceOnUse" x1="59106.2" y1="34170.1" x2="60469.2" y2="38233.1"><stop offset="0" stop-color="#4b5905"/><stop offset="1" stop-color="#4b5708"/></linearGradient><linearGradient id="id52" gradientUnits="userSpaceOnUse" x1="12862.6" y1="35721.9" x2="17688.8" y2="38679.9"><stop offset="0" stop-color="#484905"/><stop offset="1" stop-color="#4b4b05"/></linearGradient><linearGradient id="id53" gradientUnits="userSpaceOnUse" x1="60273.3" y1="9798.2" x2="67862" y2="19808.8"><stop offset="0" stop-color="#5d7770"/><stop offset="1" stop-color="#546d54"/></linearGradient><linearGradient id="id54" gradientUnits="userSpaceOnUse" x1="60103.7" y1="8124.72" x2="68031.7" y2="14787.6"><stop offset="0" stop-color="#627e7e"/><stop offset="1" stop-color="#607c79"/></linearGradient><linearGradient id="id55" gradientUnits="userSpaceOnUse" x1="48095.2" y1="-218.52" x2="54774.1" y2="3421.44"><stop offset="0" stop-color="#7c9aac"/><stop offset="1" stop-color="#80a1b8"/></linearGradient><linearGradient id="id56" gradientUnits="userSpaceOnUse" x1="6759.87" y1="4115.33" x2="10670.2" y2="14369"><stop offset="0" stop-color="#3d5644"/><stop offset="1" stop-color="#445d52"/></linearGradient><linearGradient id="id57" gradientUnits="userSpaceOnUse" x1="-52.5" y1="10728.3" x2="555.86" y2="11061.7"><stop offset="0" stop-color="#2d442f"/><stop offset="1" stop-color="#2f4636"/></linearGradient><linearGradient id="id58" gradientUnits="userSpaceOnUse" x1="-392.65" y1="8438.77" x2="896.01" y2="9771.11"><stop offset="0" stop-color="#34504d"/><stop offset="1" stop-color="#31493b"/></linearGradient><linearGradient id="id59" gradientUnits="userSpaceOnUse" x1="-573.74" y1="10925.7" x2="1077.1" y2="14156.4"><stop offset="0" stop-color="#2f462b"/><stop offset="1" stop-color="#31482f"/></linearGradient><linearGradient id="id60" gradientUnits="userSpaceOnUse" x1="9192.93" y1="4289.1" x2="14754.3" y2="16280.7"><stop offset="0" stop-color="#425642"/><stop offset="1" stop-color="#486056"/></linearGradient><linearGradient id="id61" gradientUnits="userSpaceOnUse" x1="9192.94" y1="4115.33" x2="14754.3" y2="14369"><stop offset="0" stop-color="#4d6769"/><stop offset="1" stop-color="#49625d"/></linearGradient><linearGradient id="id62" gradientUnits="userSpaceOnUse" x1="52225.2" y1="34046.6" x2="57180.1" y2="38704.2"><stop offset="0" stop-color="#505d08"/><stop offset="1" stop-color="#4d5b08"/></linearGradient><linearGradient id="id63" gradientUnits="userSpaceOnUse" x1="39172" y1="900.17" x2="48296.1" y2="9589.75"><stop offset="0" stop-color="#7793a0"/><stop offset="1" stop-color="#6b858c"/></linearGradient><linearGradient id="id64" gradientUnits="userSpaceOnUse" x1="64801.3" y1="16312.8" x2="68634.7" y2="19706.6"><stop offset="0" stop-color="#546e56"/><stop offset="1" stop-color="#506742"/></linearGradient><linearGradient id="id65" gradientUnits="userSpaceOnUse" x1="64362.7" y1="22079.5" x2="69073.3" y2="30120.4"><stop offset="0" stop-color="#4d5b1f"/><stop offset="1" stop-color="#506438"/></linearGradient><linearGradient id="id66" gradientUnits="userSpaceOnUse" x1="67101.8" y1="31531.4" x2="68115.6" y2="32460.4"><stop offset="0" stop-color="#4b5713"/><stop offset="1" stop-color="#4b5718"/></linearGradient><linearGradient id="id67" gradientUnits="userSpaceOnUse" x1="66955.7" y1="30375.9" x2="68261.6" y2="31681.8"><stop offset="0" stop-color="#4d5b1c"/><stop offset="1" stop-color="#50602f"/></linearGradient><linearGradient id="id68" gradientUnits="userSpaceOnUse" x1="-278.06" y1="26579.1" x2="6082.06" y2="32216.5"><stop offset="0" stop-color="#384108"/><stop offset="1" stop-color="#38420c"/></linearGradient><linearGradient id="id69" gradientUnits="userSpaceOnUse" x1="381.48" y1="24024.5" x2="5422.52" y2="27089.2"><stop offset="0" stop-color="#344213"/><stop offset="1" stop-color="#36420f"/></linearGradient><linearGradient id="id70" gradientUnits="userSpaceOnUse" x1="33350" y1="20625.5" x2="40649.2" y2="33486.1"><stop offset="0" stop-color="#595b0f"/><stop offset="1" stop-color="#52591c"/></linearGradient><linearGradient id="id71" gradientUnits="userSpaceOnUse" x1="29781.8" y1="33474" x2="38383.3" y2="38234.1"><stop offset="0" stop-color="#605d0a"/><stop offset="1" stop-color="#605d05"/></linearGradient><linearGradient id="id72" gradientUnits="userSpaceOnUse" x1="31612.1" y1="20625.5" x2="40649.2" y2="30966.1"><stop offset="0" stop-color="#505718"/><stop offset="1" stop-color="#50591d"/></linearGradient><linearGradient id="id73" gradientUnits="userSpaceOnUse" x1="19926.3" y1="19250.8" x2="26961.4" y2="30950.5"><stop offset="0" stop-color="#4b5216"/><stop offset="1" stop-color="#46542a"/></linearGradient><linearGradient id="id74" gradientUnits="userSpaceOnUse" x1="34327.5" y1="-750.7" x2="38256.1" y2="1650.88"><stop offset="0" stop-color="#7e9aac"/><stop offset="1" stop-color="#85a0b3"/></linearGradient><linearGradient id="id75" gradientUnits="userSpaceOnUse" x1="48618.5" y1="3722.98" x2="52579.2" y2="10112.5"><stop offset="0" stop-color="#708e97"/><stop offset="1" stop-color="#6b878e"/></linearGradient><linearGradient id="id76" gradientUnits="userSpaceOnUse" x1="27441.1" y1="18062.1" x2="34262.4" y2="27577.2"><stop offset="0" stop-color="#48562a"/><stop offset="1" stop-color="#4d5928"/></linearGradient><linearGradient id="id77" gradientUnits="userSpaceOnUse" x1="25008" y1="20625.5" x2="31612.1" y2="31748.2"><stop offset="0" stop-color="#495421"/><stop offset="1" stop-color="#4f5413"/></linearGradient><linearGradient id="id78" gradientUnits="userSpaceOnUse" x1="16752.9" y1="31748.2" x2="25008" y2="36179.9"><stop offset="0" stop-color="#4d4d08"/><stop offset="1" stop-color="#4d4f0a"/></linearGradient><linearGradient id="id79" gradientUnits="userSpaceOnUse" x1="48676.7" y1="23779.8" x2="55432" y2="28376.6"><stop offset="0" stop-color="#4d5d24"/><stop offset="1" stop-color="#4f5b1c"/></linearGradient><linearGradient id="id80" gradientUnits="userSpaceOnUse" x1="31612.1" y1="18062.1" x2="40649.2" y2="27577.2"><stop offset="0" stop-color="#4b5b34"/><stop offset="1" stop-color="#4d5926"/></linearGradient><linearGradient id="id81" gradientUnits="userSpaceOnUse" x1="37400.9" y1="33722.9" x2="43059.4" y2="37985.2"><stop offset="0" stop-color="#606005"/><stop offset="1" stop-color="#606008"/></linearGradient><linearGradient id="id82" gradientUnits="userSpaceOnUse" x1="14893.3" y1="18852" x2="24695.2" y2="31349.3"><stop offset="0" stop-color="#444d16"/><stop offset="1" stop-color="#49521c"/></linearGradient><linearGradient id="id83" gradientUnits="userSpaceOnUse" x1="28271.8" y1="5884.51" x2="38949.6" y2="17813.6"><stop offset="0" stop-color="#5d7775"/><stop offset="1" stop-color="#566b5d"/></linearGradient><linearGradient id="id84" gradientUnits="userSpaceOnUse" x1="28392.1" y1="1160.86" x2="39133.3" y2="9329.06"><stop offset="0" stop-color="#678287"/><stop offset="1" stop-color="#6d878e"/></linearGradient><linearGradient id="id85" gradientUnits="userSpaceOnUse" x1="19526.6" y1="11936.8" x2="27361.1" y2="20537.7"><stop offset="0" stop-color="#445636"/><stop offset="1" stop-color="#495b41"/></linearGradient><linearGradient id="id86" gradientUnits="userSpaceOnUse" x1="51576.4" y1="11082.2" x2="54313.6" y2="19176.5"><stop offset="0" stop-color="#4f6446"/><stop offset="1" stop-color="#546b54"/></linearGradient><linearGradient id="id87" gradientUnits="userSpaceOnUse" x1="38333.1" y1="-29.77" x2="39986.3" y2="929.95"><stop offset="0" stop-color="#8ca7bf"/><stop offset="1" stop-color="#87a3ba"/></linearGradient><linearGradient id="id88" gradientUnits="userSpaceOnUse" x1="57433.1" y1="34342.1" x2="59579.6" y2="38061.1"><stop offset="0" stop-color="#4d5b0a"/><stop offset="1" stop-color="#4b5908"/></linearGradient><linearGradient id="id89" gradientUnits="userSpaceOnUse" x1="19919.8" y1="4450.74" x2="27967.2" y2="11774.3"><stop offset="0" stop-color="#5d777b"/><stop offset="1" stop-color="#597270"/></linearGradient><linearGradient id="id90" gradientUnits="userSpaceOnUse" x1="51771.9" y1="28576.5" x2="56638.1" y2="36440.6"><stop offset="0" stop-color="#525d0a"/><stop offset="1" stop-color="#4f5b0f"/></linearGradient><linearGradient id="id91" gradientUnits="userSpaceOnUse" x1="39858.5" y1="10019.9" x2="52215.1" y2="17762.3"><stop offset="0" stop-color="#526750"/><stop offset="1" stop-color="#5b756e"/></linearGradient><linearGradient id="id92" gradientUnits="userSpaceOnUse" x1="32637.2" y1="37813.5" x2="41419.6" y2="38239.4"><stop offset="0" stop-color="#626005"/><stop offset="1" stop-color="#605e05"/></linearGradient><linearGradient id="id93" gradientUnits="userSpaceOnUse" x1="4848.15" y1="14369" x2="12234.3" y2="17410.4"><stop offset="0" stop-color="#384d2f"/><stop offset="1" stop-color="#3d5236"/></linearGradient><linearGradient id="id94" gradientUnits="userSpaceOnUse" x1="1354.94" y1="28095.1" x2="8949.64" y2="33011.6"><stop offset="0" stop-color="#3a4208"/><stop offset="1" stop-color="#3d4408"/></linearGradient><linearGradient id="id95" gradientUnits="userSpaceOnUse" x1="2841.72" y1="4205.71" x2="10591.1" y2="13062.1"><stop offset="0" stop-color="#3f574b"/><stop offset="1" stop-color="#466264"/></linearGradient><linearGradient id="id96" gradientUnits="userSpaceOnUse" x1="34517.8" y1="10031.2" x2="40393.7" y2="20184.1"><stop offset="0" stop-color="#4d5e42"/><stop offset="1" stop-color="#52674f"/></linearGradient><linearGradient id="id97" gradientUnits="userSpaceOnUse" x1="52901.6" y1="9415.98" x2="60113.9" y2="19626.2"><stop offset="0" stop-color="#526950"/><stop offset="1" stop-color="#5d7974"/></linearGradient><linearGradient id="id98" gradientUnits="userSpaceOnUse" x1="52901.6" y1="3159.47" x2="60113.9" y2="10632.5"><stop offset="0" stop-color="#708e9a"/><stop offset="1" stop-color="#628080"/></linearGradient><linearGradient id="id99" gradientUnits="userSpaceOnUse" x1="61348.6" y1="34442" x2="63397.8" y2="37961.2"><stop offset="0" stop-color="#495607"/><stop offset="1" stop-color="#4b560a"/></linearGradient><linearGradient id="id100" gradientUnits="userSpaceOnUse" x1="63479.7" y1="-130.61" x2="67914.3" y2="3507.35"><stop offset="0" stop-color="#779ab1"/><stop offset="1" stop-color="#7c9ebc"/></linearGradient><linearGradient id="id101" gradientUnits="userSpaceOnUse" x1="63756.1" y1="4636.98" x2="67637.9" y2="6852.28"><stop offset="0" stop-color="#7291a1"/><stop offset="1" stop-color="#6b8a93"/></linearGradient><linearGradient id="id102" gradientUnits="userSpaceOnUse" x1="55911.6" y1="28814.6" x2="60188.7" y2="34290.8"><stop offset="0" stop-color="#4f5b13"/><stop offset="1" stop-color="#4d590c"/></linearGradient><linearGradient id="id103" gradientUnits="userSpaceOnUse" x1="63328.7" y1="1962.81" x2="68065.2" y2="5335.41"><stop offset="0" stop-color="#7595a8"/><stop offset="1" stop-color="#7495a7"/></linearGradient><linearGradient id="id104" gradientUnits="userSpaceOnUse" x1="15317.4" y1="-404.47" x2="19911.6" y2="4780.49"><stop offset="0" stop-color="#607c85"/><stop offset="1" stop-color="#64808c"/></linearGradient><linearGradient id="id105" gradientUnits="userSpaceOnUse" x1="52922.7" y1="-191.02" x2="56573.4" y2="3393.94"><stop offset="0" stop-color="#7997aa"/><stop offset="1" stop-color="#7c9cb1"/></linearGradient><linearGradient id="id106" gradientUnits="userSpaceOnUse" x1="47588" y1="-90.63" x2="52254.1" y2="4162.51"><stop offset="0" stop-color="#7793a3"/><stop offset="1" stop-color="#7c9aac"/></linearGradient><linearGradient id="id107" gradientUnits="userSpaceOnUse" x1="46905.8" y1="10632.5" x2="52901.6" y2="19235.2"><stop offset="0" stop-color="#4f6446"/><stop offset="1" stop-color="#546b56"/></linearGradient><linearGradient id="id108" gradientUnits="userSpaceOnUse" x1="8082.86" y1="37458.5" x2="14171.1" y2="38377.1"><stop offset="0" stop-color="#424203"/><stop offset="1" stop-color="#484803"/></linearGradient><linearGradient id="id109" gradientUnits="userSpaceOnUse" x1="55853.4" y1="28688.6" x2="61984.8" y2="34069.2"><stop offset="0" stop-color="#4f5b16"/><stop offset="1" stop-color="#4d5b13"/></linearGradient><linearGradient id="id110" gradientUnits="userSpaceOnUse" x1="12450.7" y1="16591" x2="19230.3" y2="26311.1"><stop offset="0" stop-color="#3f502d"/><stop offset="1" stop-color="#424f23"/></linearGradient><linearGradient id="id111" gradientUnits="userSpaceOnUse" x1="15310.4" y1="27047.1" x2="24278.1" y2="32278.2"><stop offset="0" stop-color="#444b0f"/><stop offset="1" stop-color="#4b4f0a"/></linearGradient><linearGradient id="id112" gradientUnits="userSpaceOnUse" x1="3052.89" y1="16384.1" x2="14464.1" y2="26517.9"><stop offset="0" stop-color="#3d4d2a"/><stop offset="1" stop-color="#3b4816"/></linearGradient><linearGradient id="id113" gradientUnits="userSpaceOnUse" x1="15032.5" y1="-195.69" x2="18325.3" y2="4484.81"><stop offset="0" stop-color="#6b879c"/><stop offset="1" stop-color="#678390"/></linearGradient><linearGradient id="id114" gradientUnits="userSpaceOnUse" x1="57159.4" y1="3159.45" x2="63372.5" y2="9415.97"><stop offset="0" stop-color="#7293a1"/><stop offset="1" stop-color="#6d8c97"/></linearGradient><linearGradient id="id115" gradientUnits="userSpaceOnUse" x1="54684.7" y1="9739.21" x2="61546" y2="19867.8"><stop offset="0" stop-color="#506648"/><stop offset="1" stop-color="#566e5b"/></linearGradient><linearGradient id="id116" gradientUnits="userSpaceOnUse" x1="54757.7" y1="19784.3" x2="61473" y2="23421.8"><stop offset="0" stop-color="#4d6038"/><stop offset="1" stop-color="#4d6034"/></linearGradient><linearGradient id="id117" gradientUnits="userSpaceOnUse" x1="60113.9" y1="3376.73" x2="64371.8" y2="9415.97"><stop offset="0" stop-color="#67858a"/><stop offset="1" stop-color="#6e8c99"/></linearGradient><linearGradient id="id118" gradientUnits="userSpaceOnUse" x1="12581.9" y1="32704" x2="17969.4" y2="37613.7"><stop offset="0" stop-color="#484905"/><stop offset="1" stop-color="#494b07"/></linearGradient><linearGradient id="id119" gradientUnits="userSpaceOnUse" x1="58490.9" y1="-188.98" x2="65013.7" y2="3565.72"><stop offset="0" stop-color="#80a1bd"/><stop offset="1" stop-color="#7c9eb8"/></linearGradient><linearGradient id="id120" gradientUnits="userSpaceOnUse" x1="56885.8" y1="-361.27" x2="62944.1" y2="3738.01"><stop offset="0" stop-color="#7e9eb8"/><stop offset="1" stop-color="#7797aa"/></linearGradient><linearGradient id="id121" gradientUnits="userSpaceOnUse" x1="9279.84" y1="32704" x2="16752.9" y2="37613.7"><stop offset="0" stop-color="#424605"/><stop offset="1" stop-color="#464907"/></linearGradient><linearGradient id="id122" gradientUnits="userSpaceOnUse" x1="9279.86" y1="26621.3" x2="16752.9" y2="33225.4"><stop offset="0" stop-color="#424608"/><stop offset="1" stop-color="#444b0c"/></linearGradient><linearGradient id="id123" gradientUnits="userSpaceOnUse" x1="5804.02" y1="26621.3" x2="14580.5" y2="33225.4"><stop offset="0" stop-color="#3d460c"/><stop offset="1" stop-color="#3f460c"/></linearGradient><linearGradient id="id124" gradientUnits="userSpaceOnUse" x1="60374.6" y1="28576.5" x2="67195.9" y2="34181.3"><stop offset="0" stop-color="#4d5b16"/><stop offset="1" stop-color="#4b5911"/></linearGradient><linearGradient id="id125" gradientUnits="userSpaceOnUse" x1="60374.6" y1="31922" x2="67195.9" y2="36179.8"><stop offset="0" stop-color="#49560a"/><stop offset="1" stop-color="#4b590f"/></linearGradient><linearGradient id="id126" gradientUnits="userSpaceOnUse" x1="20119.4" y1="-196.79" x2="27767.7" y2="5832.79"><stop offset="0" stop-color="#647e87"/><stop offset="1" stop-color="#6d8793"/></linearGradient><linearGradient id="id127" gradientUnits="userSpaceOnUse" x1="47131.7" y1="18566.1" x2="51198.4" y2="25291.8"><stop offset="0" stop-color="#4f5d28"/><stop offset="1" stop-color="#4d603b"/></linearGradient><linearGradient id="id128" gradientUnits="userSpaceOnUse" x1="25062" y1="30905.8" x2="33296" y2="38282.2"><stop offset="0" stop-color="#54540a"/><stop offset="1" stop-color="#595908"/></linearGradient><linearGradient id="id129" gradientUnits="userSpaceOnUse" x1="25008" y1="27577.2" x2="33350" y2="31748.2"><stop offset="0" stop-color="#52540e"/><stop offset="1" stop-color="#545611"/></linearGradient><linearGradient id="id130" gradientUnits="userSpaceOnUse" x1="20183.3" y1="-369.7" x2="25654.9" y2="4745.72"><stop offset="0" stop-color="#67838c"/><stop offset="1" stop-color="#7590a1"/></linearGradient><linearGradient id="id131" gradientUnits="userSpaceOnUse" x1="29579.9" y1="30939" x2="37060" y2="38249.1"><stop offset="0" stop-color="#5d5b07"/><stop offset="1" stop-color="#5b5b0a"/></linearGradient><linearGradient id="id132" gradientUnits="userSpaceOnUse" x1="39558.7" y1="10141.5" x2="46519.1" y2="20073.7"><stop offset="0" stop-color="#4d5e3d"/><stop offset="1" stop-color="#546954"/></linearGradient><linearGradient id="id133" gradientUnits="userSpaceOnUse" x1="40649.2" y1="18192.4" x2="48383" y2="25665.5"><stop offset="0" stop-color="#4b5b31"/><stop offset="1" stop-color="#4d5d2f"/></linearGradient></defs><g id="__x0023_Layer_x0020_3"><g id="_476876192"><path class="fil0" d="M28049 5636L27293 0h-1292l-6163 4376z"/><path class="fil1" d="M39476 900L33108 0h-5815l756 5636z"/><path class="fil2" d="M51424 19235l1217 1434 1825-1043z"/><path class="fil3" d="M68021 31429v-1293l-825 1786z"/><path class="fil4" d="M38316 0h-5208l6368 900z"/><path class="fil5" d="M0 7452v3306l503-125z"/><path class="fil6" d="M0 10758v400l503-525z"/><path class="fil7" d="M57159 3159L56457 0h-1564l-2556 3203z"/><path class="fil8" d="M63373 3377L58382 0h-1925l702 3159z"/><path class="fil9" d="M63373 3377l-6214-218 2955 6257z"/><path class="fil10" d="M61765 20191L60114 9416l-5648 10210z"/><path class="fil11" d="M52641 20669l2085 2911-260-3954z"/><path class="fil12" d="M54726 23580l7039-3389-7299-565z"/><path class="fil13" d="M55726 28577h6387l-7387-4997z"/><path class="fil14" d="M62113 28577l-348-8386-7039 3389z"/><path class="fil15" d="M51424 19235l-3041 6430 4258-4996z"/><path class="fil16" d="M52641 20669l-4258 4996 6343-2085z"/><path class="fil17" d="M54726 23580l-6343 2085 7343 2912z"/><path class="fil18" d="M27441 20626l4171 6951 2650-9515z"/><path class="fil19" d="M31612 27577l9037-6951-6387-2564z"/><path class="fil20" d="M1025 32530l3862 5692h565l3828-4997z"/><path class="fil21" d="M1025 32530l8255 695-3476-5344z"/><path class="fil22" d="M9280 33225l-3828 4997h2607l4523-608z"/><path class="fil23" d="M5804 27881l3476 5344 5300-6604z"/><path class="fil24" d="M2936 23232l2868 4649 8776-1260z"/><path class="fil25" d="M12234 16281l-9298 6951 11644 3389z"/><path class="fil26" d="M52337 3203l-4041 869 4606 6561z"/><path class="fil27" d="M52902 10633l-1478 8602 3042 391z"/><path class="fil28" d="M57159 3159l-4822 44 565 7430z"/><path class="fil29" d="M54466 19626l5648-10210-7212 1217z"/><path class="fil30" d="M60114 9416l-2955-6257-4257 7474z"/><path class="fil31" d="M40004 0h-1688l1160 900z"/><path class="fil32" d="M44967 0h-4963l-528 900z"/><path class="fil33" d="M48296 4072L47505 0h-2538l-5491 900z"/><path class="fil34" d="M52337 3203L47976 0h-471l791 4072z"/><path class="fil35" d="M54893 0h-6917l4361 3203z"/><path class="fil36" d="M65122 0h-6740l4991 3377z"/><path class="fil37" d="M68021 1901V0h-2899l-1749 3377z"/><path class="fil38" d="M68021 5397V1901l-4648 1476z"/><path class="fil39" d="M64372 8113l-999-4736-3259 6039z"/><path class="fil40" d="M64372 8113l3649-565V5397l-4648-2020z"/><path class="fil41" d="M61765 20191l6256-5005v-386l-7907-5384z"/><path class="fil42" d="M60114 9416l7907 5384v-280l-3649-6407z"/><path class="fil43" d="M68021 14520V7548l-3649 565z"/><path class="fil44" d="M65415 20278l-3650-87 348 8386z"/><path class="fil45" d="M65415 20278l2606-4819v-273l-6256 5005z"/><path class="fil46" d="M67196 31922l-1781-11644-3302 8299z"/><path class="fil47" d="M67196 31922l825-1786v-9576l-2606-282z"/><path class="fil48" d="M68021 20560v-5101l-2606 4819z"/><path class="fil49" d="M40649 20626l7734 5039-1477-7473z"/><path class="fil50" d="M46906 18192l1477 7473 3041-6430z"/><path class="fil51" d="M46906 18192l4518 1043 1478-8602z"/><path class="fil52" d="M38390 37831l3030 391h1954l-6287-4736z"/><path class="fil53" d="M37087 33486l11296-7821-7734-5039z"/><path class="fil54" d="M37087 33486l6287 4736h512l4497-12557z"/><path class="fil55" d="M27441 20626l-2433 11122 6604-4171z"/><path class="fil56" d="M9280 33225l3302 4389 4171-4910z"/><path class="fil57" d="M14580 26621l-5300 6604 7473-521z"/><path class="fil58" d="M12582 37614l5387-1434-1216-3476z"/><path class="fil59" d="M16753 32704l8255-956-10428-5127z"/><path class="fil60" d="M17969 36180l7039-4432-8255 956z"/><path class="fil61" d="M0 33781v4441h4887l-3862-5692z"/><path class="fil62" d="M8059 38222h6136l-1613-608z"/><path class="fil63" d="M12582 37614l1613 608h3506l268-2042z"/><path class="fil64" d="M37087 33486l-7312 4736h2861l5754-391z"/><path class="fil65" d="M32636 38222h8784l-3030-391z"/><path class="fil66" d="M17701 38222h10636l-10368-2042z"/><path class="fil67" d="M17969 36180l10368 2042h959l-4288-6474z"/><path class="fil68" d="M48296 4072L39476 900l-304 8690z"/><path class="fil69" d="M40649 20626l6257-2434-7734-8602z"/><path class="fil70" d="M39172 9590l7734 8602 5996-7559z"/><path class="fil71" d="M52902 10633l-4606-6561-9124 5518z"/><path class="fil72" d="M39476 900L28049 5636l11123 3954z"/><path class="fil73" d="M39172 9590L28049 5636l6213 12426z"/><path class="fil74" d="M34262 18062l6387 2564-1477-11036z"/><path class="fil75" d="M33350 30966l3737 2520 3562-12860z"/><path class="fil76" d="M25008 31748l4288 6474h257l3797-7256z"/><path class="fil77" d="M25008 31748l8342-782-1738-3389z"/><path class="fil78" d="M33350 30966l-3797 7256h222l7312-4736z"/><path class="fil79" d="M31612 27577l1738 3389 7299-10340z"/><path class="fil80" d="M48383 25665l-4497 12557h1057l6829-1781z"/><path class="fil81" d="M44943 38222h9584l-2755-1781z"/><path class="fil82" d="M48383 25665l3389 10776 3954-7864z"/><path class="fil83" d="M51772 36441l4866-1912-912-5952z"/><path class="fil84" d="M51772 36441l2755 1781h3106l-995-3693z"/><path class="fil85" d="M56638 34529l3737-348-4649-5604z"/><path class="fil86" d="M55726 28577l4649 5604 1738-5604z"/><path class="fil87" d="M56638 34529l995 3693h1440l1302-4041z"/><path class="fil88" d="M60375 34181l-1302 4041h1429z"/><path class="fil89" d="M60375 34181l127 4041h2284l1586-2042z"/><path class="fil90" d="M62113 28577l-1738 5604 6821-2259z"/><path class="fil91" d="M67196 31922l-6821 2259 3997 1999z"/><path class="fil92" d="M64372 36180l3649-391v-3226l-825-641z"/><path class="fil93" d="M68021 32563v-1134l-825 493z"/><path class="fil94" d="M62786 38222h4256l-2670-2042z"/><path class="fil95" d="M67042 38222h979v-2433l-3649 391z"/><path class="fil96" d="M26001 0h-5526l-637 4376z"/><path class="fil97" d="M12654 0H9218l1452 4115z"/><path class="fil98" d="M14754 4289V0h-2100l-1984 4115z"/><path class="fil99" d="M18603 0h-3849v4289z"/><path class="fil100" d="M19838 4376L20475 0h-1872l-3849 4289z"/><path class="fil101" d="M14580 26621l4867-8168-7213-2172z"/><path class="fil102" d="M14580 26621l10428 5127-5561-13295z"/><path class="fil103" d="M19447 18453l5561 13295 2433-11122z"/><path class="fil104" d="M5804 27881L0 26265v3843l1025 2422z"/><path class="fil105" d="M2936 23232L0 24781v1484l5804 1616z"/><path class="fil106" d="M0 22498v2283l2936-1549z"/><path class="fil107" d="M0 30108v2046l1025 376z"/><path class="fil108" d="M0 32154v1627l1025-1251z"/><path class="fil109" d="M0 19268v3230l2936 734z"/><path class="fil110" d="M0 11158v3292l503-3817z"/><path class="fil111" d="M503 10633L0 14450v3977l4848-1017z"/><path class="fil112" d="M4848 17410L0 18427v841l2936 3964z"/><path class="fil113" d="M503 10633l4345 6777 1912-4257z"/><path class="fil114" d="M4848 17410l-1912 5822 9298-6951z"/><path class="fil115" d="M6760 13153l-1912 4257 4345-3041z"/><path class="fil116" d="M9193 14369l-4345 3041 7386-1129z"/><path class="fil117" d="M9193 14369l1477-10254-3910 9038z"/><path class="fil118" d="M14754 4289l-4084-174-1477 10254z"/><path class="fil119" d="M12234 16281l2520-11992-5561 10080z"/><path class="fil120" d="M2763 4289L0 4550v2902l503 3181z"/><path class="fil121" d="M886 0H512L0 2439v2111l2763-261z"/><path class="fil122" d="M2763 4289L503 10633l6257 2520z"/><path class="fil123" d="M5031 0H886l1877 4289z"/><path class="fil124" d="M10670 4115l-7907 174 3997 8864z"/><path class="fil125" d="M10670 4115L9218 0H5031L2763 4289z"/><path class="fil126" d="M0 0v2439L512 0z"/><path class="fil127" d="M23444 11849l-8690-7560-2520 11992z"/><path class="fil128" d="M12234 16281l7213 2172 3997-6604z"/><path class="fil129" d="M19838 4376l-5084-87 8690 7560z"/><path class="fil130" d="M19447 18453l7994 2173-3997-8777z"/><path class="fil131" d="M28049 5636l-8211-1260 3606 7473z"/><path class="fil132" d="M23444 11849l3997 8777 6821-2564z"/><path class="fil133" d="M34262 18062L28049 5636l-4605 6213z"/></g></g></svg>